<?xml version="1.0" encoding="UTF-8" standalone="no"?>
<!-- Created with Inkscape (http://www.inkscape.org/) -->

<svg
   width="159.28185mm"
   height="89.596031mm"
   viewBox="0 0 159.28185 89.596031"
   version="1.1"
   id="svg5"
   inkscape:version="1.1.2 (0a00cf5339, 2022-02-04)"
   sodipodi:docname="logo.svg"
   xmlns:inkscape="http://www.inkscape.org/namespaces/inkscape"
   xmlns:sodipodi="http://sodipodi.sourceforge.net/DTD/sodipodi-0.dtd"
   xmlns="http://www.w3.org/2000/svg"
   xmlns:svg="http://www.w3.org/2000/svg">
  <sodipodi:namedview
     id="namedview7"
     pagecolor="#ffffff"
     bordercolor="#666666"
     borderopacity="1.0"
     inkscape:pageshadow="2"
     inkscape:pageopacity="0.0"
     inkscape:pagecheckerboard="0"
     inkscape:document-units="mm"
     showgrid="false"
     fit-margin-top="0"
     fit-margin-left="0"
     fit-margin-right="0"
     fit-margin-bottom="0"
     inkscape:zoom="0.77504209"
     inkscape:cx="349.0133"
     inkscape:cy="255.47"
     inkscape:window-width="1920"
     inkscape:window-height="1043"
     inkscape:window-x="1920"
     inkscape:window-y="0"
     inkscape:window-maximized="1"
     inkscape:current-layer="layer1" />
  <defs
     id="defs2" />
  <g
     inkscape:label="Layer 1"
     inkscape:groupmode="layer"
     id="layer1"
     transform="translate(-0.46162045,1.093176)">
    <rect
       style="opacity:1;fill:#ffffff;fill-opacity:1;stroke:#000000;stroke-width:0.002"
       id="rect1302"
       width="91.941711"
       height="73.628639"
       x="32.977913"
       y="5.6114459" />
    <path
       style="fill:#262730;fill-opacity:1;stroke-width:0.124439"
       d="M 0.46162045,43.704841 V -1.093176 H 80.102538 159.74347 V 43.704841 88.502858 H 80.102538 0.46162045 Z m 63.55914155,4.49109 c 0.03107,-3.3021 0.01978,-3.51202 -0.186659,-3.47231 -0.202535,0.0389 -0.222319,0.30479 -0.25292,3.3986 -0.01826,1.84599 -0.0042,3.43184 0.03118,3.5241 0.03541,0.0923 0.13434,0.14445 0.219856,0.11597 0.1184,-0.0394 0.163369,-0.89 0.188546,-3.56636 z m 31.947744,-0.0216 c 0,-3.06028 -0.0251,-3.53614 -0.18666,-3.53614 -0.16059,0 -0.19129,0.47773 -0.21982,3.4203 -0.0182,1.88117 -0.004,3.49576 0.0312,3.58797 0.0354,0.0922 0.13431,0.14434 0.21983,0.11584 0.11949,-0.0398 0.15548,-0.87047 0.15548,-3.58797 z m -20.125788,0.0398 c 0.0326,-2.95292 0.0281,-3.01601 -0.21777,-3.01601 -0.24501,0 -0.25109,0.074 -0.25109,3.05788 0,2.84526 0.0151,3.05497 0.21777,3.016 0.19915,-0.0383 0.22062,-0.29978 0.25109,-3.05787 z m 8.36631,-0.0386 c 0,-2.90451 -0.015,-3.1172 -0.21777,-3.07822 -0.19887,0.0382 -0.22067,0.29529 -0.25124,2.96197 -0.0184,1.60606 -0.006,2.99126 0.0272,3.07823 0.0334,0.087 0.14643,0.15812 0.25124,0.15812 0.16607,0 0.19057,-0.40121 0.19057,-3.1201 z m -18.44573,0.0978 c 0.0297,-2.51542 0.0109,-2.84102 -0.16811,-2.90971 -0.11201,-0.043 -0.25042,-1.2e-4 -0.31153,0.0963 -0.12399,0.1958 -0.15657,5.20605 -0.0359,5.52049 0.0428,0.11162 0.16882,0.18546 0.27998,0.16409 0.17828,-0.0343 0.20606,-0.37286 0.23557,-2.87121 z m 28.574188,2.70101 c 0.11908,-0.31031 0.0842,-5.44537 -0.0382,-5.63882 -0.0605,-0.0955 -0.19962,-0.13928 -0.30919,-0.0972 -0.17463,0.067 -0.19922,0.42765 -0.19922,2.9217 0,1.56489 0.0373,2.8826 0.083,2.92822 0.1471,0.1471 0.38608,0.0884 0.4637,-0.11387 z m -31.933949,-2.70097 c 0.02975,-2.40126 0.01071,-2.71665 -0.168108,-2.78527 -0.112112,-0.043 -0.250485,-2.5e-4 -0.311626,0.0963 -0.123421,0.19492 -0.153032,4.74315 -0.03378,5.18837 0.04708,0.17576 0.154354,0.27107 0.278288,0.24725 0.177334,-0.0341 0.205728,-0.36564 0.235224,-2.74665 z m 35.220009,2.62404 c 0.10651,-0.10652 0.14933,-0.88705 0.14933,-2.72242 0,-2.19068 -0.0292,-2.59729 -0.19615,-2.73588 -0.35727,-0.29651 -0.42218,0.11735 -0.42415,2.70424 -0.002,2.87172 0.0497,3.17529 0.47097,2.75406 z m -23.445168,-0.42083 c 0.11853,-0.30888 0.0845,-4.32495 -0.0382,-4.51887 -0.0605,-0.0955 -0.19962,-0.13927 -0.30919,-0.0972 -0.17266,0.0662 -0.19922,0.38113 -0.19922,2.36173 0,1.25691 0.0374,2.32262 0.083,2.36825 0.1471,0.14709 0.38608,0.0884 0.46371,-0.11388 z m 11.74438,-2.26531 c 0.0299,-2.11583 0.0102,-2.40579 -0.1681,-2.47419 -0.11241,-0.0431 -0.25068,-4.7e-4 -0.3119,0.0962 -0.12419,0.19615 -0.15616,4.33603 -0.0359,4.64942 0.0429,0.11162 0.16883,0.18547 0.27999,0.16412 0.17676,-0.034 0.20635,-0.33945 0.23591,-2.43554 z m -15.10423,2.14087 c 0.0415,-0.10826 0.0755,-1.0639 0.0755,-2.12364 0,-2.00564 -0.1074,-2.55609 -0.44421,-2.27656 -0.14174,0.11763 -0.17798,0.5839 -0.17798,2.28942 0,1.17793 0.0373,2.17903 0.083,2.22466 0.14709,0.1471 0.38608,0.0884 0.4637,-0.11388 z m 18.46421,-2.14082 c 0.0299,-2.00165 0.01,-2.28146 -0.16812,-2.34976 -0.11252,-0.0432 -0.25075,-4.7e-4 -0.31201,0.0962 -0.12426,0.19626 -0.15602,4.08753 -0.0359,4.40054 0.0429,0.11162 0.16883,0.18548 0.27999,0.16412 0.17622,-0.0339 0.20646,-0.32991 0.23604,-2.31105 z m -16.83319,0.0252 c 0,-1.78824 -0.0281,-2.1051 -0.18666,-2.1051 -0.15668,0 -0.19218,0.31892 -0.22106,1.98603 -0.0359,2.07559 -0.004,2.36149 0.25224,2.27598 0.11618,-0.0387 0.15548,-0.58393 0.15548,-2.15691 z m -3.35985,0.002 c 0,-1.78578 -0.0213,-1.98304 -0.21777,-2.02089 -0.20003,-0.0385 -0.21777,0.1193 -0.21777,1.93747 0,1.08867 0.0385,2.01791 0.0855,2.06496 0.27931,0.27931 0.34999,-0.12087 0.34999,-1.98154 z m 18.47918,-0.0328 c 0,-1.1521 -0.0335,-2.1282 -0.0744,-2.16911 -0.0409,-0.0409 -0.1529,-0.0443 -0.24887,-0.007 -0.14017,0.0538 -0.1745,0.48046 -0.1745,2.16911 0,2.01919 0.01,2.10215 0.24888,2.10215 0.23902,0 0.24888,-0.083 0.24888,-2.09473 z m 3.332008,-0.0924 c -0.0288,-1.66313 -0.0644,-1.98153 -0.221028,-1.98153 -0.15633,0 -0.19226,0.31071 -0.22109,1.91205 -0.024,1.33585 0.01,1.96557 0.11294,2.08963 0.293598,0.35376 0.362978,-0.072 0.329178,-2.02015 z m -23.518468,0.0617 c -0.0289,-1.38594 -0.0666,-1.66995 -0.22153,-1.66995 -0.15443,0 -0.19269,0.2763 -0.22159,1.60035 -0.024,1.09986 0.0113,1.65608 0.11295,1.77853 0.28733,0.34621 0.36472,-0.0544 0.33017,-1.70893 z m -6.754571,0.0618 c 0,-1.34578 -0.03037,-1.60734 -0.186658,-1.60734 -0.153529,0 -0.192918,0.26375 -0.221923,1.48603 -0.03739,1.57551 0.0036,1.86365 0.253098,1.78047 0.113652,-0.0379 0.155483,-0.48427 0.155483,-1.65916 z m 31.980809,-0.0518 c 0,-1.49775 -0.0232,-1.68099 -0.21777,-1.71846 -0.19911,-0.0383 -0.21777,0.10887 -0.21777,1.71846 0,1.60958 0.0187,1.7568 0.21777,1.71845 0.19455,-0.0375 0.21777,-0.2207 0.21777,-1.71845 z m -15.054218,1.33772 c 0.0384,-0.154 0.0535,-0.83996 0.0335,-1.52438 -0.0336,-1.1493 -0.0554,-1.24439 -0.28526,-1.24439 -0.22986,0 -0.25166,0.0951 -0.28526,1.24439 -0.0411,1.40405 0.0222,1.80437 0.28526,1.80437 0.10005,0 0.21336,-0.126 0.25178,-0.27999 z m 5.03688,-1.32807 c 0,-1.37259 -0.12067,-1.76424 -0.45746,-1.48472 -0.11786,0.0978 -0.16473,0.51476 -0.16473,1.46542 0,1.37259 0.12067,1.76423 0.45746,1.48472 0.11786,-0.0978 0.16473,-0.51476 0.16473,-1.46542 z m 16.799258,-0.01 c 0,-1.53474 -0.0128,-1.6177 -0.24887,-1.6177 -0.23612,0 -0.24888,0.083 -0.24888,1.6177 0,1.53475 0.0127,1.61771 0.24888,1.61771 0.23611,0 0.24887,-0.083 0.24887,-1.61771 z m -42.12258,0.0519 c 0,-1.12456 -0.03214,-1.35846 -0.186659,-1.35846 -0.150975,0 -0.193518,0.23619 -0.222543,1.23554 -0.0385,1.32566 0.0093,1.61467 0.253719,1.53321 0.111692,-0.0373 0.155483,-0.43444 0.155483,-1.41029 z m 45.420214,-0.0622 c 0,-1.17987 -0.0317,-1.42068 -0.18665,-1.42068 -0.15171,0 -0.19335,0.24307 -0.22238,1.29819 -0.0382,1.38811 0.008,1.67693 0.25355,1.59499 0.11225,-0.0374 0.15548,-0.4469 0.15548,-1.4725 z m -43.641275,0.15308 c 0.03963,-0.98277 -0.112918,-1.38488 -0.426621,-1.12453 -0.115119,0.0955 -0.170148,0.43142 -0.170148,1.03853 0,0.94422 0.05347,1.09491 0.367249,1.03511 0.148969,-0.0284 0.201079,-0.24388 0.22952,-0.94911 z m 42.010255,0.7804 c 0.11481,-0.29917 0.0865,-1.70862 -0.0382,-1.90565 -0.0605,-0.0955 -0.19963,-0.13928 -0.3092,-0.0972 -0.15622,0.06 -0.19922,0.2631 -0.19922,0.94125 0,0.96127 0.0735,1.25847 0.3111,1.25847 0.088,0 0.19402,-0.0886 0.23557,-0.19683 z m -21.825722,-0.8609 c 0,-0.72589 -0.0255,-0.80885 -0.24888,-0.80885 -0.22335,0 -0.24888,0.083 -0.24888,0.80885 0,0.7259 0.0255,0.80886 0.24888,0.80886 0.22335,0 0.24888,-0.083 0.24888,-0.80886 z m 1.55549,-0.0726 c 0,-0.62681 -0.0401,-0.79849 -0.18666,-0.79849 -0.13807,0 -0.1966,0.17432 -0.22484,0.66958 -0.0435,0.76396 0.0322,1.05381 0.25601,0.97921 0.10282,-0.0343 0.15549,-0.32231 0.15549,-0.8503 z m -19.225819,-5.47428 c 2.300198,-0.52377 3.094879,-3.2227 1.437046,-4.88054 l -0.552228,-0.55223 0.37784,-0.3589 c 0.885583,-0.8412 1.086546,-1.96716 0.554893,-3.10895 -0.591666,-1.27066 -2.156371,-1.83738 -3.876876,-1.40415 -0.706746,0.17796 -1.607008,0.96141 -1.80938,1.5746 -0.373502,1.13173 -0.116604,2.25218 0.69015,3.01009 l 0.321268,0.30182 -0.49427,0.50491 c -0.634869,0.64855 -0.879367,1.24946 -0.879367,2.16127 0,1.32728 0.79118,2.33191 2.115462,2.68619 0.820675,0.21955 1.366016,0.23654 2.115462,0.0659 z m -1.876156,-2.22118 c -0.284385,-0.28438 -0.363745,-0.47566 -0.363745,-0.87673 0,-0.74564 0.41123,-1.12386 1.221952,-1.12386 1.062833,0 1.60271,0.74632 1.21358,1.67764 -0.213513,0.51101 -0.518615,0.6867 -1.192534,0.6867 -0.403854,0 -0.594292,-0.0788 -0.879253,-0.36375 z m 0.382889,-4.1474 c -0.454,-0.23674 -0.671996,-0.97741 -0.446512,-1.51707 0.325651,-0.77939 1.413624,-0.85703 1.886942,-0.13466 0.252828,0.38587 0.171135,1.12232 -0.161381,1.45484 -0.301604,0.30161 -0.90122,0.3939 -1.279049,0.19689 z m 36.428694,6.14514 c 0.2741,-0.13984 0.64059,-0.42328 0.81442,-0.62986 0.5913,-0.70272 0.64854,-1.0879 0.64854,-4.36398 v -3.04876 l -0.35144,-0.71569 c -0.48209,-0.98175 -1.12332,-1.35982 -2.4339,-1.43501 -1.1957,-0.0686 -1.88947,0.11766 -2.50309,0.67204 -0.84994,0.76786 -0.93351,1.17878 -0.93351,4.58964 0,3.2087 0.0591,3.60127 0.64771,4.30077 0.33917,0.40308 0.87033,0.72133 1.46775,0.87942 0.63464,0.16795 2.09652,0.0305 2.64352,-0.24857 z m -2.37045,-1.85614 c -0.34812,-0.38467 -0.48935,-1.56839 -0.43709,-3.66363 0.0434,-1.73819 0.0775,-1.99556 0.30578,-2.30212 0.34703,-0.4661 0.79326,-0.61283 1.26696,-0.41662 0.62351,0.25827 0.70674,0.65765 0.70674,3.39117 0,2.29329 -0.0166,2.47091 -0.2614,2.79988 -0.33752,0.45353 -1.24438,0.56327 -1.58099,0.19132 z m 10.304744,1.90988 c 1.01195,-0.42282 1.43085,-1.08915 1.43008,-2.27482 -9.4e-4,-1.38575 -0.63612,-1.89097 -2.72765,-2.16945 -1.69628,-0.22584 -2.1485,-0.70421 -0.92694,-0.98054 0.51947,-0.11751 0.71469,-0.094 1.83536,0.22077 l 0.73131,0.20542 0.47826,-0.55335 c 0.26304,-0.30434 0.47993,-0.6437 0.48197,-0.75412 0.007,-0.3664 -1.41486,-0.89474 -2.57566,-0.95721 -2.36526,-0.1273 -3.472884,0.6892 -3.371394,2.48528 0.0423,0.74864 0.0938,0.89912 0.417404,1.22039 0.40889,0.40591 1.25468,0.67171 2.59362,0.81511 0.91313,0.0978 1.41579,0.38212 1.28376,0.72618 -0.19138,0.49873 -1.4786,0.59582 -2.57494,0.19421 -0.37643,-0.13789 -0.76841,-0.27837 -0.87107,-0.31218 -0.2208,-0.0727 -1.301684,1.24871 -1.181064,1.44389 0.14038,0.22713 1.075714,0.63955 1.851634,0.81644 0.93775,0.21378 2.45885,0.15245 3.12532,-0.12602 z m -32.354632,-0.75444 v -0.87107 l -1.9881,-0.0344 c -1.09346,-0.0189 -2.03641,-0.0827 -2.09544,-0.14175 -0.0602,-0.0601 0.73663,-1.43985 1.81267,-3.13878 1.05601,-1.66729 1.9876,-3.15869 2.0702,-3.31421 0.0852,-0.16047 0.13419,-0.61794 0.11321,-1.05773 l -0.037,-0.77497 -3.2098,-0.0332 -3.20979,-0.0332 0.0366,0.9043 0.0366,0.90429 1.9288,0.0622 c 1.46472,0.0473 1.92115,0.10014 1.89701,0.21983 -0.0175,0.0867 -0.92713,1.57062 -2.02142,3.29763 l -1.98962,3.14003 -7.5e-4,0.81922 c -3.7e-4,0.45057 0.0375,0.85746 0.0843,0.9042 0.0467,0.0468 1.54468,0.0701 3.32875,0.0519 l 3.24379,-0.0331 z m 8.62285,-0.0311 0.0365,-0.90218 h -2.3449 c -1.6579,0 -2.38866,-0.0437 -2.49423,-0.14933 -0.0905,-0.0906 -0.14933,-0.53041 -0.14933,-1.11758 0,-1.16556 -0.16424,-1.0871 2.36434,-1.12944 l 1.80437,-0.0302 v -0.87107 -0.87107 l -2.05325,-0.0622 -2.05324,-0.0622 v -1.11995 -1.11995 l 2.42656,-0.0622 2.42656,-0.0622 0.0366,-0.90416 0.0366,-0.90416 -3.45867,0.0331 -3.45867,0.0331 -0.0326,4.97735 c -0.0179,2.73754 -0.005,5.04834 0.028,5.13511 0.0473,0.12319 0.80432,0.15051 3.45463,0.12465 l 3.3941,-0.0331 z m 3.75883,-1.08884 0.0622,-1.99103 0.56622,-0.0369 0.56623,-0.0369 1.134,2.02794 1.134,2.02794 1.13076,0.0358 c 0.8687,0.0275 1.13076,-0.002 1.13076,-0.12759 0,-0.0899 -0.47598,-0.98588 -1.05774,-1.99115 -0.58174,-1.00527 -1.05568,-1.89981 -1.05318,-1.98787 0.002,-0.088 0.2444,-0.3119 0.53755,-0.49745 1.46873,-0.92957 1.73275,-3.46327 0.50275,-4.82473 -0.72847,-0.80633 -1.10742,-0.88584 -4.03138,-0.84586 l -2.551,0.0349 -0.0325,4.97735 c -0.0179,2.73754 -0.005,5.04991 0.0293,5.13859 0.0447,0.11645 0.31302,0.15107 0.96585,0.12465 l 0.90399,-0.0366 z m 0.0527,-4.21082 c -0.0351,-0.0916 -0.0474,-0.60958 -0.0272,-1.15106 l 0.0367,-0.98451 1.33914,-0.0353 c 1.28357,-0.0339 1.35201,-0.0225 1.64882,0.27433 0.4358,0.4358 0.43794,1.32397 0.004,1.75768 -0.28579,0.28579 -0.39011,0.30544 -1.62161,0.30544 -0.9845,0 -1.33227,-0.0419 -1.38008,-0.16655 z"
       id="path854" />
  </g>
</svg>
